<svg width="30" height="31" viewBox="0 0 30 31" fill="none" xmlns="http://www.w3.org/2000/svg">
<path fill-rule="evenodd" clip-rule="evenodd" d="M14.9996 30.3002C18.8187 30.3002 22.4814 28.7409 25.1819 25.9654C27.8825 23.1898 29.3996 19.4254 29.3996 15.5002C29.3996 11.575 27.8825 7.81055 25.1819 5.03502C22.4814 2.25948 18.8187 0.700195 14.9996 0.700195C11.1805 0.700195 7.5178 2.25948 4.81727 5.03502C2.11675 7.81055 0.599609 11.575 0.599609 15.5002C0.599609 19.4254 2.11675 23.1898 4.81727 25.9654C7.5178 28.7409 11.1805 30.3002 14.9996 30.3002ZM4.79721 11.8501C5.46553 9.88307 6.65802 8.14849 8.23881 6.84405C8.72121 7.6007 9.55281 8.10019 10.4996 8.10019C11.2157 8.10019 11.9024 8.39256 12.4088 8.91297C12.9151 9.43339 13.1996 10.1392 13.1996 10.8752V11.8002C13.1996 12.7815 13.5789 13.7226 14.254 14.4165C14.9292 15.1104 15.8448 15.5002 16.7996 15.5002C17.7544 15.5002 18.6701 15.1104 19.3452 14.4165C20.0203 13.7226 20.3996 12.7815 20.3996 11.8002C20.3993 10.9722 20.6693 10.168 21.1663 9.51631C21.6633 8.86463 22.3586 8.40313 23.141 8.20565C24.8588 10.2252 25.8036 12.8177 25.7996 15.5002C25.7996 16.1292 25.7492 16.7489 25.6502 17.3502H23.9996C23.0448 17.3502 22.1292 17.74 21.454 18.4339C20.7789 19.1278 20.3996 20.0689 20.3996 21.0502V25.1146C18.7585 26.0905 16.8956 26.603 14.9996 26.6002V22.9002C14.9996 21.9189 14.6203 20.9778 13.9452 20.2839C13.2701 19.59 12.3544 19.2002 11.3996 19.2002C10.4448 19.2002 9.52915 18.8104 8.85402 18.1165C8.17889 17.4226 7.79961 16.4815 7.79961 15.5002C7.79993 14.6251 7.49848 13.7783 6.9488 13.11C6.39913 12.4418 5.6368 11.9954 4.79721 11.8501Z" fill="white"/>
</svg>
