<svg width="28" height="28" viewBox="0 0 28 28" fill="none" xmlns="http://www.w3.org/2000/svg">
<path d="M14.0003 9.99984C12.9395 9.99984 11.922 10.4213 11.1719 11.1714C10.4218 11.9216 10.0003 12.939 10.0003 13.9998C10.0003 15.0607 10.4218 16.0781 11.1719 16.8283C11.922 17.5784 12.9395 17.9998 14.0003 17.9998C15.0612 17.9998 16.0786 17.5784 16.8288 16.8283C17.5789 16.0781 18.0003 15.0607 18.0003 13.9998C18.0003 12.939 17.5789 11.9216 16.8288 11.1714C16.0786 10.4213 15.0612 9.99984 14.0003 9.99984ZM14.0003 7.33317C15.7684 7.33317 17.4641 8.03555 18.7144 9.28579C19.9646 10.536 20.667 12.2317 20.667 13.9998C20.667 15.7679 19.9646 17.4636 18.7144 18.7139C17.4641 19.9641 15.7684 20.6665 14.0003 20.6665C12.2322 20.6665 10.5365 19.9641 9.28628 18.7139C8.03604 17.4636 7.33366 15.7679 7.33366 13.9998C7.33366 12.2317 8.03604 10.536 9.28628 9.28579C10.5365 8.03555 12.2322 7.33317 14.0003 7.33317ZM22.667 6.99984C22.667 7.44186 22.4914 7.86579 22.1788 8.17835C21.8663 8.49091 21.4424 8.6665 21.0003 8.6665C20.5583 8.6665 20.1344 8.49091 19.8218 8.17835C19.5093 7.86579 19.3337 7.44186 19.3337 6.99984C19.3337 6.55781 19.5093 6.13389 19.8218 5.82133C20.1344 5.50877 20.5583 5.33317 21.0003 5.33317C21.4424 5.33317 21.8663 5.50877 22.1788 5.82133C22.4914 6.13389 22.667 6.55781 22.667 6.99984ZM14.0003 3.33317C10.7017 3.33317 10.163 3.3425 8.62833 3.4105C7.58299 3.45984 6.88166 3.59984 6.23099 3.85317C5.65233 4.07717 5.23499 4.34517 4.79099 4.7905C4.37367 5.1937 4.0528 5.68595 3.85233 6.2305C3.59899 6.88384 3.45899 7.58384 3.41099 8.62784C3.34166 10.0998 3.33366 10.6145 3.33366 13.9998C3.33366 17.2985 3.34299 17.8372 3.41099 19.3718C3.46033 20.4158 3.60033 21.1185 3.85233 21.7678C4.07899 22.3478 4.34566 22.7652 4.78833 23.2078C5.23766 23.6558 5.65499 23.9238 6.22833 24.1452C6.88699 24.3998 7.58833 24.5412 8.62833 24.5892C10.1003 24.6585 10.615 24.6665 14.0003 24.6665C17.299 24.6665 17.8377 24.6572 19.3723 24.5892C20.415 24.5398 21.1177 24.3998 21.7683 24.1478C22.3457 23.9225 22.7657 23.6545 23.2083 23.2118C23.6577 22.7625 23.9257 22.3452 24.147 21.7718C24.4003 21.1145 24.5417 20.4118 24.5897 19.3718C24.659 17.8998 24.667 17.3852 24.667 13.9998C24.667 10.7012 24.6577 10.1625 24.5897 8.62784C24.5403 7.58517 24.4003 6.88117 24.147 6.2305C23.9461 5.68651 23.6258 5.19445 23.2097 4.7905C22.8066 4.37297 22.3143 4.05206 21.7697 3.85184C21.1163 3.5985 20.415 3.4585 19.3723 3.4105C17.9003 3.34117 17.3857 3.33317 14.0003 3.33317ZM14.0003 0.666504C17.623 0.666504 18.075 0.679837 19.4963 0.746504C20.9163 0.813171 21.883 1.03584 22.7337 1.3665C23.6137 1.70517 24.355 2.16384 25.0963 2.90384C25.7743 3.57037 26.2989 4.37662 26.6337 5.2665C26.963 6.11584 27.187 7.08384 27.2537 8.50384C27.3163 9.92517 27.3337 10.3772 27.3337 13.9998C27.3337 17.6225 27.3203 18.0745 27.2537 19.4958C27.187 20.9158 26.963 21.8825 26.6337 22.7332C26.2999 23.6235 25.7752 24.43 25.0963 25.0958C24.4296 25.7736 23.6234 26.2982 22.7337 26.6332C21.8843 26.9625 20.9163 27.1865 19.4963 27.2532C18.075 27.3158 17.623 27.3332 14.0003 27.3332C10.3777 27.3332 9.92566 27.3198 8.50433 27.2532C7.08433 27.1865 6.11766 26.9625 5.26699 26.6332C4.37676 26.2991 3.57036 25.7744 2.90433 25.0958C2.2262 24.4294 1.70157 23.6231 1.36699 22.7332C1.03633 21.8838 0.813659 20.9158 0.746992 19.4958C0.684325 18.0745 0.666992 17.6225 0.666992 13.9998C0.666992 10.3772 0.680325 9.92517 0.746992 8.50384C0.813659 7.0825 1.03633 6.11717 1.36699 5.2665C1.70064 4.37608 2.2254 3.5696 2.90433 2.90384C3.57055 2.22548 4.3769 1.70081 5.26699 1.3665C6.11766 1.03584 7.08299 0.813171 8.50433 0.746504C9.92566 0.683837 10.3777 0.666504 14.0003 0.666504Z" fill="white"/>
</svg>
