<svg width="18" height="17" viewBox="0 0 18 17" fill="none" xmlns="http://www.w3.org/2000/svg">
<path d="M7.95407 1.21979C8.28407 0.206686 9.71737 0.206686 10.0463 1.21979L11.2233 4.84099C11.2952 5.06152 11.435 5.25368 11.6226 5.39C11.8103 5.52632 12.0363 5.59982 12.2683 5.59999H16.0765C17.1424 5.59999 17.5846 6.96399 16.7233 7.59099L13.6433 9.82839C13.4552 9.96482 13.3152 10.1573 13.2432 10.3782C13.1713 10.5992 13.1712 10.8372 13.2429 11.0582L14.4199 14.6794C14.7499 15.6925 13.5894 16.5362 12.7259 15.9092L9.64587 13.6718C9.45799 13.5354 9.23178 13.4619 8.99962 13.4619C8.76745 13.4619 8.54124 13.5354 8.35337 13.6718L5.27337 15.9092C4.41097 16.5362 3.25157 15.6925 3.58047 14.6794L4.75747 11.0582C4.82916 10.8372 4.82903 10.5992 4.7571 10.3782C4.68517 10.1573 4.54513 9.96482 4.35707 9.82839L1.27817 7.59209C0.416867 6.96509 0.860167 5.60109 1.92497 5.60109H5.73207C5.96422 5.60115 6.19044 5.52776 6.37834 5.39142C6.56625 5.25509 6.7062 5.0628 6.77817 4.84209L7.95517 1.22089L7.95407 1.21979Z" fill="#FFF615"/>
</svg>
