<svg width="28" height="23" viewBox="0 0 28 23" fill="none" xmlns="http://www.w3.org/2000/svg">
<path d="M19.4004 3.39983C18.387 3.39966 17.414 3.79732 16.6909 4.50725C15.9677 5.21718 15.5522 6.18262 15.5337 7.19583L15.4964 9.29583C15.4942 9.40858 15.4682 9.5196 15.4201 9.62159C15.372 9.72359 15.3028 9.81426 15.2172 9.88767C15.1316 9.96107 15.0314 10.0155 14.9233 10.0475C14.8151 10.0795 14.7015 10.0882 14.5897 10.0732L12.5084 9.79049C9.76969 9.41716 7.14569 8.15583 4.62835 6.05849C3.83102 10.4718 5.38835 13.5292 9.13902 15.8878L11.4684 17.3518C11.579 17.4214 11.671 17.517 11.7361 17.6303C11.8013 17.7436 11.8377 17.8712 11.8422 18.0018C11.8467 18.1324 11.8191 18.2622 11.7618 18.3797C11.7045 18.4972 11.6193 18.5989 11.5137 18.6758L9.39102 20.2265C10.6537 20.3052 11.8524 20.2492 12.847 20.0518C19.1377 18.7958 23.3204 14.0625 23.3204 6.25449C23.3204 5.61716 21.971 3.39983 19.4004 3.39983ZM12.867 7.14649C12.8903 5.86123 13.2922 4.61139 14.0224 3.55346C14.7527 2.49553 15.7788 1.67652 16.9722 1.19898C18.1657 0.721446 19.4736 0.6066 20.732 0.868823C21.9905 1.13105 23.1436 1.75869 24.047 2.67316C24.995 2.66649 25.8017 2.90649 27.6057 1.81316C27.159 3.99983 26.939 4.94916 25.987 6.25449C25.987 16.4438 19.7244 21.3985 13.3697 22.6665C9.01235 23.5358 2.67635 22.1078 0.860352 20.2118C1.78568 20.1398 5.54569 19.7358 7.71902 18.1452C5.88035 16.9332 -1.43832 12.6265 3.37102 1.04783C5.62835 3.68383 7.91769 5.47849 10.2377 6.43049C11.7817 7.06383 12.1604 7.05049 12.8684 7.14783L12.867 7.14649Z" fill="white"/>
</svg>
